<svg id="Capa_1" enable-background="new 0 0 512 512" height="512" viewBox="0 0 512 512" width="512" xmlns="http://www.w3.org/2000/svg"><g><g><path d="m458.441 420.766c-4.688-18.662-18.12-34.043-35.947-41.162l-60.533-21.821-105.961-11.783-105.963 11.783-60.56 21.821c-17.813 7.119-31.23 22.515-35.918 41.162l-22.559 91.234h179.72l19.03-20.244 26.25-.007 26.25-.007 19.048 20.258h179.702z" fill="#ffb366"/><path d="m301.298 512h179.702l-22.559-91.234c-4.688-18.662-18.12-34.043-35.947-41.162l-60.533-21.821-105.961-11.783v145.749l26.25-.007z" fill="#f93"/><path d="m282.25 415.741-26.25.008-26.25.007-19.03 96.244h45.28 45.298z" fill="#474f54"/><path d="m282.25 415.741-26.25.008v96.251h45.298z" fill="#32393f"/><circle cx="256" cy="391" fill="#575f64" r="45"/><path d="m301 391c0-24.853-20.147-45-45-45v90c24.853 0 45-20.147 45-45z" fill="#474f54"/><path d="m325.521 435.312 36.44-77.529-60.961-21.975-28.639 10.579-16.361 29.613z" fill="#ffb366"/><path d="m243.948 350.239-32.948-14.42-60.963 21.964 36.383 77.529 69.58-59.312z" fill="#ffd480"/><path d="m256 271h-45v64.819l45 40.181 45-40.192v-64.808z" fill="#ffe6cc"/><path d="m301 271h-45v105l45-40.192z" fill="#fc9"/></g><path d="m355 105h-99-105v106c0 57.99 47.01 105 105 105s105-47.01 105-105v-16z" fill="#ffe6cc"/><path d="m361 211v-16l-6-90h-99v211c57.99 0 105-47.01 105-105z" fill="#fc9"/><path d="m286 30h-30-45c-8.276 0-15-6.724-15-15v-15h-15c-49.629 0-90 40.371-90 90s40.371 90 90 90c16.62 0 31.935-8.771 40.386-23.084 7.936-13.44 20.233-23.639 34.614-29.996 9.261-4.096 19.219-6.92 30-6.92 41.422 0 75 33.578 75 75v-90c0-41.353-33.647-75-75-75z" fill="#ff6c6c"/><path d="m361 195v-90c0-41.353-33.647-75-75-75h-30v96.92c9.261-4.096 19.219-6.92 30-6.92 41.422 0 75 33.578 75 75z" fill="#e63950"/></g></svg>