<?xml version="1.0" standalone="no"?><svg xmlns="http://www.w3.org/2000/svg" viewBox="0 0 1440 320"><path fill="#ff3b8c" fill-opacity="1" d="M0,128L40,117.3C80,107,160,85,240,69.3C320,53,400,43,480,58.7C560,75,640,117,720,144C800,171,880,181,960,186.7C1040,192,1120,192,1200,192C1280,192,1360,192,1400,192L1440,192L1440,320L1400,320C1360,320,1280,320,1200,320C1120,320,1040,320,960,320C880,320,800,320,720,320C640,320,560,320,480,320C400,320,320,320,240,320C160,320,80,320,40,320L0,320Z"></path></svg>